<svg xmlns="http://www.w3.org/2000/svg" viewBox="0 0 47 47"><path d="M46.8 22.8c-0.2-4.2-0.2-8.4-0.5-9.2 -0.3-0.8-4.4-3.6-6.1-4.3 -1.6-0.7-8.6-4.3-10.6-5.3 -2-1.1-5.9-3.8-6.5-3.8s-1.6 0.6-2.6 1.1 -4.9 3.1-7.7 4.5c-2.8 1.5-6 3.5-9.3 5 -3.4 1.5-3.2 1.7-3.4 2.3 -0.1 0.4 0.2 2.5 0.3 5.6 0.1 3.1-0.3 9-0.4 10.7 -0.1 1.6 0.3 2.6 1 3.6s3.6 2.5 6.8 4.3c3.2 1.8 8.4 5.5 11 7.4s3.2 1.8 4.3 2.1c1.1 0.3 7.9-3.8 13.3-7.1 5.4-3.3 10.3-6.3 10.4-6.9C47 32.3 47 27 46.8 22.8zM45.8 30.1c-0.2-0.2-3.4-3.8-3.6-3.7 -0.2 0.2-0.3 0.5-0.3 0.7 0.1 0.1 3.4 3.5 3.5 3.8 0.1 0.2-0.2 0.6-0.4 0.5 -0.2-0.1-3-2.9-3.4-2.9 -0.4-0.1-0.9 0.4-0.5 0.7 0.3 0.3 3.1 2.6 3.1 2.8 0 0.2-0.7 0.9-0.9 0.8 -0.2-0.1-2.7-2.7-3.1-2.7s-0.8 0.4-0.6 0.5c0.2 0.2 2.9 2.6 2.7 2.8 -0.1 0.2-0.7 1-1 0.7s-2.4-2.7-2.8-2.7 -0.7 0.4-0.6 0.6c0.2 0.2 2.5 2.4 2.5 2.6s-0.7 0.5-0.9 0.5c-0.2-0.1-2.3-2.6-2.6-2.6s-0.7 0.3-0.6 0.4 2.5 2.7 2.5 2.8 -0.6 0.6-0.8 0.5c-0.2-0.2-2-2.6-2.6-2.6 -0.5 0-0.7 0.3-0.6 0.4s2.5 2.5 2.3 2.6c-0.2 0.2-0.8 0.5-1 0.4 -0.2-0.2-2.4-2.3-2.7-2.4 -0.3-0.1-0.7 0.4-0.6 0.6 0.2 0.2 2.7 2.2 2.4 2.4 -0.3 0.2-1.2 1-1.5 0.8s-2.1-2.3-2.6-2.3 -0.9 0.3-0.6 0.5c0.3 0.3 2.3 2.1 2.1 2.3 -0.2 0.2-0.5 0.6-0.7 0.4 -0.2-0.2-2.1-2-2.4-2s-0.8 0.2-0.6 0.4 2.5 1.8 2.3 2.2 -1 0.9-1.2 0.7c-0.2-0.2-2.2-2.2-2.5-2.2 -0.3 0.1-0.6 0.3-0.4 0.5s2.2 2 2.1 2.2 -0.6 0.7-0.8 0.5c-0.1-0.2-2.5-2.6-2.7-2.5s-0.6 0.7-0.4 0.9c0.3 0.2 2.5 1.8 2.3 2s-0.8 0.8-1.1 0.6 -2.1-1.9-2.4-1.9 -0.6 0.4-0.3 0.7c0.4 0.3 1.9 1.5 1.9 1.6s-0.3 0.4-0.6 0.3c-0.3-0.1-2-1.6-2.3-1.6s-0.8 0.4-0.6 0.6c0.2 0.2 2 1.2 1.9 1.5s-0.5 0.7-0.8 0.5 -8.7-5.3-11.4-6.9c-2.7-1.6-6.1-3.7-8.1-4.9 -1.9-1.2-2.9-1.4-3.1-2.5s0.2-5.9 0.3-8.6c0.1-2.7-0.1-4.9-0.2-5.5 -0.1-0.7-0.2-2-0.1-2.4 0.1-0.7 1.5-1.3 4.4-2.6 2.8-1.3 11.9-6.6 13.4-7.5s3.5-2.1 4-2 5 3.3 8.2 4.6c3.1 1.3 9.7 4.5 10.7 5.2s1.5 1.1 1.5 1.2 -0.2 0.4 0.1 0.6c0.4 0.2 2 1.6 2.1 1.8 0 0.2 0.2 1.6 0.1 1.5s-1.8-2.2-2.2-2.2 -0.7 0.4-0.5 0.7c0.2 0.3 2.6 2.4 2.8 2.7 0.1 0.3 0.3 1 0.1 0.9 -0.2-0.2-1.9-2-2.1-2s-0.5 0.2-0.4 0.6 2.4 2.5 2.5 2.7 0.1 1.7-0.1 1.6 -1.9-2.4-2.1-2.3 -0.2 0.6-0.2 0.6 2.2 2.6 2.3 2.9 0.3 2.3 0.1 2c-0.2-0.3-1.9-2.3-2.1-2.3s-0.4 0.3-0.3 0.6 2.3 2.7 2.4 2.9c0.1 0.2 0.2 2.1 0 1.8 -0.1-0.3-2.2-2.6-2.4-2.5s-0.5 0.4-0.3 0.7c0.2 0.2 2.7 2.9 2.7 3.1C45.9 28.9 46 30.2 45.8 30.1zM7.3 16.6c0.6 0.3 5.4 3.5 5.9 3.8s1.8 0.1 3.3-0.6 4.2-2 4.3-2.3 0.1-5.1 0-5.9 0-4-0.3-4.1 -6.3 3-8.1 4 -6.2 3.3-6.4 3.5C5.7 15.5 6.7 16.3 7.3 16.6zM9.2 15.9c0.1-0.2 4.9-2.9 6.6-4s3.6-2.2 3.7-1.9c0.2 0.3 0.7 6.4 0.2 6.9 -0.5 0.4-5.3 2.8-6 2.4C13.2 19 8.9 16.8 9.2 15.9zM25.3 17.2c0.1 0.3 5 2.6 5.4 2.7s1.1-0.1 1.8-0.4c0.7-0.3 7.1-3.7 7.8-4 0.7-0.3 1-0.5 1.1-1.1 0-0.6-1-1.4-3.1-2.6s-7.1-3.4-9.2-4.3 -2.8-0.7-3.2-0.4c-0.7 0.4-0.5 1.9-0.5 2.7C25.3 10.7 25.2 16.9 25.3 17.2zM26.5 7.9c0.1-0.2 4.4 1.6 8.2 3.5 3.8 2 5.4 2.8 5.3 3.2s-4.5 2.4-6.4 3.3c-1.9 0.9-2.4 1.1-2.7 1 -0.2-0.1-4.3-1.9-4.4-2.3 -0.2-0.5 0-4.1-0.1-5.2C26.5 10.2 26.3 8.1 26.5 7.9zM27.5 21.3c-0.3-0.4-4-2.4-4.4-2.5 -0.5-0.1-1.3 0.5-2.3 1.1s-2.4 1.5-2.3 1.8c0.1 0.8 4 2.5 4.7 2.6s3.4-1.6 3.9-2C27.4 22.1 27.7 21.7 27.5 21.3zM23.1 23.1c-0.4-0.2-1.3-0.8-1.3-0.9 -0.1-0.2 2.4-1.6 2.7-1.4 0.4 0.3 1.2 0.5 1.3 0.8C25.8 21.8 23.5 23.3 23.1 23.1zM18.4 6.4c0.5-0.4 3.5-1.8 4-2.2 0.6-0.3 1.4 0.3 1.7 0.5 0.3 0.1 0.7-0.1 0.8-0.4 0.1-0.3-1.1-0.9-1.5-1.1s-0.8-0.2-1.5 0.1c-0.7 0.3-4.4 2.3-4.6 2.5s0 0.7 0.2 0.8C17.7 6.6 17.9 6.8 18.4 6.4zM5 13.6c0.3-0.3 0-0.4-0.4-0.6s-2.4 0.7-2.6 1.1c-0.2 0.3 0.2 2.2 0.5 2.3 0.3 0.2 0.7-0.1 0.9-0.4 0.2-0.3-0.1-1-0.2-1.3C3.2 14.3 4.7 13.8 5 13.6zM6.8 24.5c0.8-0.5 2.2-1.1 2-1.5s-2.9-2.2-3.5-2.6 -1.6 0.1-1.7 0.4c-0.1 0.2 0 3.2 0 3.7s-0.1 1.1 0.5 1.4C4.8 26.1 5.9 25 6.8 24.5zM5.9 22.4c0.1-0.2 1.2 0.6 1.1 0.8 0 0.2-0.9 0.9-1.2 0.7S5.8 22.6 5.9 22.4zM19.7 28.3c-0.6-0.3-6.2-3.3-6.6-3.3 -0.4-0.1-8.9 4.5-8.9 4.7 0 0.5 2.5 1.5 5.8 3.4 3.2 1.8 9.1 5.2 9.6 5.5s1.2 0.2 1.5-0.2c0.3-0.3 0.1-7.9 0.1-8.6C21.1 29.3 20.3 28.7 19.7 28.3zM20 37.4c-0.4-0.1-8-4.4-9.2-5s-2.1-1.3-2.1-1.4c0.1-0.4 5.2-4.1 5.8-3.9 0.5 0.1 5.3 2.5 5.5 2.9C20.2 30.3 20.4 37.5 20 37.4zM31.5 24.9c-0.7-0.1-6.7 3-6.8 3.5 -0.1 0.4 0.6 7.5 0.6 7.8 0.1 0.2 0.4 0.7 0.9 0.8 0.5 0.1 1.7-0.4 3.6-1.4s9.1-5.2 9.3-5.6c0.3-0.4 0.1-1.1-0.1-1.3C38.9 28.4 32.2 25 31.5 24.9zM31.7 33.4c-2.5 1.5-4.7 2.8-5.1 2.5s-0.8-5.2-0.8-5.6c0-0.3 6.5-3.8 7.2-3.6 0.7 0.3 5.1 2.2 5.1 2.6C38.2 29.7 34.3 31.9 31.7 33.4zM41.6 18.2c-0.4 0-5.8 3.3-5.8 3.5 -0.1 1.2 2.7 1.7 3.9 2.2 1.2 0.5 2.4 1 2.7 0.7s0.1-3.3 0.1-4.8C42.5 18.1 42 18.2 41.6 18.2zM41.5 23.4c-0.4-0.1-3.6-1.5-3.9-1.7s3.5-2.3 3.8-2.1C41.7 19.9 41.8 23.5 41.5 23.4z"/></svg>