<svg xmlns="http://www.w3.org/2000/svg" viewBox="0 0 50.7 50.7"><path d="M49.8 36.6c-0.5-1.2-3.2-4.2-3.7-4.2 -0.6 0-1.5 0.9-2.2 1.3 -0.7 0.4-3.8 2.2-7.5 3.7s-6.2 1.9-8.6 2.2c-2.4 0.2-6.5-0.1-10-2s-7-5.2-7.8-9.5c-0.9-4.2 0.1-6.7 3.1-11.1 3.1-4.4 9.5-7.1 14.3-8s10.1 0.8 12.9 3.2c2.8 2.4 3 5.1 3.2 8s-2.3 4.7-3 4.9c-0.6 0.2-1.1 0-1.4-0.4s-0.1-7.4 0-8.6c0-1.2-0.7-2.1-1.3-2.1s-4.9-0.3-5.5 0c-0.6 0.2-0.5 1.1-0.5 1.1s-1.6-1-2.4-1.3c-0.7-0.3-4.7-0.9-8.5-0.1 -3.8 0.9-6.1 4.1-7.2 6.5s-1.3 6.1 0.2 9c1.6 2.9 4.9 5.6 9.3 6.6s9-1.4 9-1.4 3.7 0.7 5.8 0.5 4.8-1.6 7.1-4.1c2.4-2.5 3.1-5.3 4.3-10s0.2-7.9-1.3-11.2 -4.9-6-7.9-7.3C37.3 1 33.3 0 27.6 0c-5.8 0-8.4 0.6-12.1 2.1 -8.1 3.2-11.1 9-12.8 13.1s-2.7 10.9-2.2 14.8 2.4 7.4 5.7 11.4 7.8 7.2 12.7 8.6 11.8 0.5 18.5-1.3c6.6-1.8 11.9-7.3 12.5-8.5C50.7 39.3 50.3 37.8 49.8 36.6zM41.5 43.5c-0.3-0.3-3.4-5.3-3.6-5.2 -0.3 0.1-0.7 0.3-0.6 0.5 0.2 0.1 3.7 4.9 3.3 5.1 -0.4 0.2-0.7 0.6-0.8 0.3s-3.2-5.4-3.4-5.4c-0.3 0-0.7 0.4-0.7 0.5 0.1 0.1 3.8 5.2 3.4 5.3 -0.5 0.1-0.6 0.9-1 0.3s-3-4.8-3.3-4.8 -0.8 0.4-0.7 0.5 2.9 4.7 2.8 4.8 -0.8 0.6-0.9 0.4c-0.2-0.2-2.7-4.7-3-4.8 -0.3-0.2-0.8 0.3-0.7 0.4 0.1 0.1 2.9 4.6 2.7 4.7 -0.2 0.1-1 0.4-1.1 0.2 -0.1-0.1-2.4-4.4-2.9-4.4s-0.8 0.2-0.7 0.3 2.8 4.3 2.6 4.4 -0.9 0.4-1.1 0.2c-0.1-0.2-2.3-4.8-2.8-4.8s-0.9 0.1-0.7 0.4c0.2 0.3 2.4 4.5 2.4 4.5s-0.7 0.5-0.9 0.1c-0.3-0.4-2.8-4.4-3-4.5s-0.8 0-0.6 0.2 3.1 4.4 2.7 4.4c-0.4 0-0.6 0.5-0.9 0 -0.3-0.5-2.7-4.1-2.9-4.1 -0.2 0-0.7 0.1-0.6 0.4s2.4 3.7 2.1 3.7c-0.3 0-0.7 0.3-0.9 0s-2.6-4.2-3-4.2 -0.7 0.4-0.7 0.5 2.9 3.5 2.3 3.6c-0.5 0.1-1.1 0.3-1.3-0.1 -0.1-0.4-2-3.3-2.2-3.4 -0.3-0.1-0.8-0.2-0.7 0.1s2.4 3.3 1.7 3.3 -0.9 0.1-1.1-0.3c-0.2-0.4-1.6-3.1-1.7-3.1s-0.9 0.1-0.7 0.5c0.2 0.4 1.5 2.4 1 2.4s-7.1-2.3-11.3-6.6 -5.4-7.4-5.8-10.9 -0.2-7.7 1.1-11.5 3.7-8 6.7-10.7 8.2-5.9 18.5-5.5c4.7 0.2 9.8 0.7 13.7 3.2 3.9 2.6 6 6 6.6 10 0.5 4 0 7.3-1.4 10.8s-3.2 5.5-4.8 6.2c-1.6 0.6-5.4 1.3-6.1 0.7 -0.7-0.6-2.6-4.8-3.1-4.7s-0.5 0.5-0.4 0.8 2.1 3.6 1.6 3.5c-0.4 0-0.6 0.1-0.9-0.4 -0.3-0.5-2-5-2.4-5.1s-0.9 0.1-0.7 0.3 1.6 3.5 1.5 3.7c-0.1 0.1-0.3 0.7-0.5 0.5s-1.5-3-1.7-2.9 -0.6 0.5-0.4 1.1c0.3 0.5 1.5 2.5 1.4 2.6 -0.1 0.2-0.3 0.5-0.5 0.2s-1.4-2.9-1.6-3c-0.3-0.1-0.9 0.1-0.7 0.5s1.6 3 1.6 3.1 -0.5 0.5-0.7 0.2 -1.3-2.7-1.6-2.7 -0.6 0.1-0.4 0.6c0.2 0.4 1.2 2.4 1.2 2.5s-0.3 0.4-0.6 0.1c-0.3-0.3-1.5-3-1.8-3s-0.9 0.4-0.7 0.7c0.2 0.3 1.4 2.2 1.1 2.3s-0.3 0.4-0.6 0 -1.3-2.2-1.6-2.2c-0.3 0-0.8 0.3-0.6 0.5 0.2 0.2 1.4 1.9 1.1 1.9s-1.1 0-1.3-0.2c-0.2-0.2-1.3-2.4-1.5-2.4s-0.8 0.1-0.6 0.4c0.2 0.3 1 1.8 0.6 1.7s-3.5-1.2-5.4-3.3 -2.2-5.7-1.7-7.6c0.5-2 2.5-4.7 4.4-5.8s4.3-2 7.7-1.6c3.5 0.3 5.3 2.4 5.5 2.7s0.5 0.5 0.9 0.6 0.3 0 0.3-0.4 -0.2-2.2-0.1-2.3c0.1 0 4.5 0 4.7 0.3s0.1 3.5 0.2 5c0.1 1.5-0.6 4.5 0.5 5.4s1.9 0.9 2.9 0.4 2.7-2.3 3-4.4c0.4-2.1 0.8-5.9-2.4-9.3 -3.2-3.4-6-4.9-9.5-5.8 -3.5-0.8-9.7 0.3-12.6 1.3s-8 4.8-9.8 8.8 -1.9 9.2-1.5 11.4c0.4 2.1 3.1 6.7 5.2 8.4 2.2 1.7 5.9 3.7 10 4.2 4.2 0.5 10.5-1.5 11.2-1.7 0.6-0.2 3.1-1.2 3.4-1.1 0.3 0.1 3.5 5.2 3.5 5.3S41.8 43.8 41.5 43.5zM45.7 40.7c-0.2-0.4-2.6-4.8-3-4.7 -0.3 0.1-0.8 0.3-0.6 0.5s3 4.6 2.9 4.8 -0.4 0.7-0.8 0.4c-0.3-0.3-2.6-4.8-2.9-4.8 -0.3 0-0.7 0.4-0.7 0.6 0 0.1 3 4.6 2.9 4.8s-0.4 0.7-0.7 0.5c-0.2-0.1-2.2-3.9-2.5-4.4 -0.4-0.4-0.7-0.9-0.6-1.1s3.4-2 3.7-1.9 3.3 4.8 3.2 5S45.9 41.1 45.7 40.7zM47 39.9c-0.3-0.3-2.8-5.1-2.9-5.3 -0.1-0.2 0.8-0.4 0.9-0.4 0.1 0 3.2 4.5 3 4.8C47.8 39.3 47.2 40.2 47 39.9zM49.2 37.9c-0.2 0.3 0 0.8-0.4 0.5s-2.7-4.4-2.8-4.5 0.1-0.3 0.4-0.2C46.5 33.7 49.4 37.6 49.2 37.9zM26.1 18.9c-2.7-0.9-5.5-0.3-6.7 0.6 -3.1 2.4-2.4 5.4-0.6 7.6s4.7 2 7.2 1.2c2.5-0.7 3.3-2.7 3.5-4.5C29.8 22 28.8 19.8 26.1 18.9zM25.7 27.6c-2.5 0.5-3.9 0.5-5.2-0.6 -1.3-1.2-1.1-3.7 1-4.8 1.2-0.6 3.7-0.8 4.9-0.4 1.2 0.3 2 1.6 2 2S28.2 27 25.7 27.6zM19.8 18.2c0.4-0.2-0.2-0.9-0.5-0.8 -0.3 0.1-1.7 0.8-2.7 1.7s-1.4 2.6-1.2 3c0.1 0.3 0.7 0.2 1.1 0.1 0.4-0.1 0.3-1.1 0.8-2S19.3 18.4 19.8 18.2zM8.9 12.4c0.5-0.5 0.7-1.3-0.1-1.1 -0.8 0.2-3.8 3.9-4.5 6s-1 4.5-0.7 5c0 0 0.4 0 0.8 0 0.4-0.1 0.2-0.9 0.9-4C6.1 15.1 8.4 12.9 8.9 12.4zM36.9 16c-0.3-0.3-3-0.4-3.1-0.1 -0.2 0.4 0.1 0.6 0.1 0.6s1.6 0.1 1.9 0.1c0.3 0 0.1 2.4 0.1 2.9s0.4 0.3 0.8 0.3C37.2 19.7 37.3 16.3 36.9 16zM41.7 26.4c-0.3 0.2-1.7 0.8-2.7 0.6s-1.5-1.5-1.7-1.4c-0.8 0.3-0.3 1.4 0.6 1.9s1.8 0.3 3 0S42 26.2 41.7 26.4z"/></svg>