<svg xmlns="http://www.w3.org/2000/svg" viewBox="0 0 46.8 46.8"><path d="M46.5 19.3c-0.5-3.3-1.9-5.9-3.7-9.2s-5.1-5.6-7.4-7.2c-2.3-1.6-5.5-2.4-8.6-2.7s-6.9-0.3-9.5 0.4c-3.6 0.9-5.9 1.9-8.3 4.1 -2.4 2.2-4.2 4.4-5.8 6.9 -1.5 2.5-2.7 6.3-2.9 8.2s0 4.4 0.6 7.3c0.7 2.9 2.1 5.6 4.3 8.9 2.1 3.3 5.1 5.3 8.5 7.4 3.4 2.1 10.7 3.7 13.4 3.3s6.5-1.3 10.4-4.4c3.9-3.1 6-8.1 7.2-11.3C46.1 27.8 46.9 22.6 46.5 19.3zM41 33.6c-0.1 0-1.6-2.7-1.7-2.9 -0.1-0.2 0.6-1.4 0.7-1.4 0.1 0 1.6 2.8 1.6 2.9S41.1 33.6 41 33.6zM35.3 15.7c-0.1-0.2-0.1-0.4-0.1-0.4 0-0.1 0.5-1.2 0.3-2.2 -0.1-1-0.6-2.6-0.5-2.6s1.8 1.4 2.8 3.6c1 2.3 1.9 4 2.2 7.1s0.2 5.3-0.9 7.4c-1.1 2.1-1.9 3.2-2.5 3.9 -0.6 0.6-1.9 1.2-2 1.2s-0.7-2.7-1.1-3.6c-0.4-0.9-1.2-2-1.2-2.2 0 0 1.3-1.1 1.7-1.8s1.9-3 1.8-5.7C35.8 17.8 35.4 15.9 35.3 15.7zM42.2 31.3c-0.1 0.1-1.9-3-1.8-3.1 0.2-0.2 0.7-1.8 0.8-1.8s1.8 3 1.8 3.2S42.4 31.2 42.2 31.3zM44.5 23c-0.2-0.2-1.6-3.3-1.8-3.4 -0.2-0.1-0.6 0.7-0.5 0.9s2 3.3 2 3.6c0.1 0.3-0.1 1.7-0.2 1.5 -0.1-0.2-1.4-2.9-1.6-2.9 -0.2 0-0.6 0.6-0.6 0.7 0 0.1 1.8 3.5 1.8 3.7s-0.3 1.6-0.4 1.3 -1.9-3.2-2-3.3c0-0.1 0-4.1-0.2-5.9 -0.2-1.8-0.9-5.4-3.4-8.3 -2.5-2.9-5.2-4.9-9-5.8 -3.8-0.9-6.2-0.9-9-0.7 -2.9 0.1-7 1.8-9.9 5.9 -2.8 4.1-3.3 5.2-3.9 8.2 -0.6 3 0.1 7.3 0.6 9.2s1.9 4.7 3.4 6.1c1.5 1.4 3.5 2.3 5 2.9 1.5 0.6 3.8 0.9 4 0.8 0.2-0.1 0.1-2.4 0-2.7s-0.2-0.4-0.8-0.4 -1.7 0-2.5-0.3c-0.7-0.3-1.3-1-1.8-1.8 -0.5-0.8-1-1.7-1.3-2 -0.3-0.4-1-1-0.9-1.1s1.3-0.2 2.2 0c0.9 0.3 2.4 1.3 3 1.7s1.5 1 1.7 1c0.3 0 0.9-1.3 1.1-1.7 0.3-0.3 0.8-1.4 0.6-1.6 -0.3-0.2-1.8-0.3-2.6-0.5s-2.2-1-3.2-2.3 -1.4-3.2-1.4-4.6c0-1.4 1.3-4 1.6-4.5s0.6-1 0.5-1.2c-0.2-0.2-0.9-1.2-1.1-1.9 -0.2-0.7 0.4-2.4 0.6-2.5 0.1-0.1 0.9 0.2 1.5 0.2 0.6 0.1 2 0.5 2.5 0.8s0.7 0.5 1 0.5 2.5-0.5 3.3-0.7 3-0.4 3.8-0.3c0.8 0.2 2.1 0.9 2.3 0.8 0.2-0.1 0.7-1.1 1.8-1.4 1.1-0.3 2.9-0.4 3.1-0.2 0.2 0.2 0.5 2.1 0.4 3.1 -0.2 1-0.5 1.6-0.3 1.8 0.2 0.3 1 2.1 0.6 3.7 -0.4 1.6-1 3.9-3 5.4s-2.7 1.8-2.9 1.9c-0.2 0.2 0 0.6 0.2 0.8s1.7 1.2 2.4 3.4 0.8 3.5 0.8 4 0.5 0.6 0.9 0.6c0.4-0.1 0.9-0.4 1.5-0.9s2.5-1.8 2.7-1.8c0.1 0.1 1.3 2.5 1.6 2.6s0.5-0.1 0.5-0.3 -0.9-2-1.2-2.5 -0.4-0.8-0.4-0.9c0.1-0.2 0.6-0.8 0.8-0.7 0.1 0.1 1.4 2.1 1.6 2.4 0.2 0.3 0.4 0.4 0.2 0.8 -0.2 0.4-1.1 1.5-1.5 1.8 -0.4 0.4-0.6 0.8-0.8 0.6s-1.4-2.3-1.6-2.3c-0.2 0-0.7 0.4-0.6 0.6s1.6 2.4 1.6 2.5 -0.8 1.1-1.6 1.7c-0.8 0.6-1.3 1-1.5 0.8s-1.7-3.9-2-3.9 -0.8 0.1-0.7 0.4c0.1 0.3 2 3.7 2 3.9s-0.6 0.6-0.8 0.4c-0.2-0.2-2.2-4.4-2.5-4.4s-0.7 0.1-0.7 0.5 2.6 4.1 2.5 4.3 -0.6 0.7-0.8 0.5 -2.6-5-2.8-5 -0.8 0.1-0.8 0.3c0 0.1 2.7 5.2 2.7 5.3s-1.1 0.6-1.3 0.5 -2.6-5.4-2.8-5.6c-0.2-0.1-0.9 0.4-0.9 0.5 0.1 0.1 2.9 5.1 2.8 5.3s-0.8 0.3-0.9 0.2c-0.1-0.1-2.8-5.3-3-5.3 -0.2-0.1-0.8 0.2-0.7 0.5s2.9 4.9 2.8 5c-0.1 0-0.8 0.1-0.9 0s-2.6-3.9-2.9-4 -0.7 0.4-0.7 0.5 2.3 3.5 2.2 3.5 -0.9 0-1.1-0.1c-0.2-0.1-1.8-3-2-3 -0.2-0.1-0.7 0.3-0.7 0.5 0.1 0.2 1.6 2.3 1.4 2.3s-0.7 0-1-0.1c-0.2-0.1-1.3-2.4-1.5-2.5s-0.6 0.2-0.6 0.3 0.9 1.7 0.7 1.7 -0.8 0-0.9-0.1c-0.2-0.1-1.2-1.8-1.3-1.9s-0.6 0.2-0.6 0.4c0.1 0.2 0.5 0.9 0.4 0.9 -0.2 0-3.6-0.9-5.5-2.2s-5.3-5.2-6.4-6.4c-1.1-1.2-2.6-4.8-3.1-6.7s-0.7-4.8-0.6-6.3c0-1.5 1.2-5.5 1.9-6.9s3.3-5.1 5-6.8 4.6-3.9 7.6-4.7c3-0.9 5.5-1.1 6.9-1.1 3.3 0 7 0.5 9.3 1.3s6.6 4.1 7.6 5.3 2.3 3.4 3.1 5 1.3 2.9 1.2 2.8 -1.1-1.8-1.3-1.7c-0.2 0-0.6 0.3-0.5 0.5s1.8 2.9 2 3.2 0.3 0.7 0.4 0.8c0 0.1 0.2 2.4 0.2 2.3 -0.1-0.1-1.7-3.1-1.9-3.2 -0.2-0.1-0.4 0.3-0.3 0.3 0.1 0.1 2.3 3.9 2.3 4.1S44.8 23.2 44.5 23zM14 15.8c0.4 0.3-0.5 0.9-1 2.1 -0.6 1.3-1.1 3.7-0.8 5.2s1 3.3 2.6 4.7 3.8 1.5 4 1.6 -0.4 1-0.5 1.1c-0.1 0.2-0.1 0.1-0.4 0s-2.2-1.7-4.1-2.1c-1.9-0.4-3.1 0.2-3.5 0.5 -0.4 0.4 0.1 1 0.6 1.4s1.2 1.2 2 2.6c0.8 1.4 1.3 1.8 2.6 2.2s2.3 0.5 2.5 0.5 0.2 0.6 0 0.8c-0.1 0.2-0.7-0.3-1.4-0.6 -0.8-0.2-2.2-0.4-3-0.9s-3.4-3.5-3.9-4.9c-0.5-1.3-1.5-4.3-1.5-5.8s-0.1-4.1 0.5-6 1.9-5.1 3.9-7.3 4.8-3.9 9-4.3c4.2-0.5 7.9 0.8 10.2 1.6s2.8 1.3 2.8 1.4c0 0-0.7 0.1-2.5 0.3 -1.8 0.1-3 1.1-3.1 1.2 -0.1 0.1-1.9-0.3-3.9-0.5 -1.9-0.2-4.6 0.7-4.7 0.7s-0.4 0-1.1-0.3c-0.7-0.3-4.2-1-4.6-1 -0.4 0-1.3 1.1-1.5 2.8C12.9 14.6 13.7 15.5 14 15.8zM27.7 1.6c-3-0.4-4.9-0.2-5.1-0.1 -0.3 0.3-0.2 0.8 0.2 0.9 0.4 0.1 2.2-0.2 4.5 0 2.4 0.2 4.1 1.1 4.5 1.1s0.6-0.6 0.4-0.8C32 2.5 30.7 2 27.7 1.6zM5.4 12.8c-2.4 2.5-2.8 5.7-3 6.8s0.5 1.6 0.9 1.4 0-1.1 0.8-3.6 1.8-3.4 2.1-4C6.4 12.9 5.6 12.6 5.4 12.8zM16.4 22.4c-0.3-0.7-0.1-1.6 0.1-2.4s-0.6-0.8-0.8-0.6c-0.5 0.5-0.7 2-0.5 3s1 2.4 1.5 2.6c0.5 0.2 0.9-0.1 0.8-0.5C17.4 24 16.7 23.1 16.4 22.4zM13.7 30.1c-0.7 0.5 0 1 0.3 1s0.6-0.1 0.5-0.6C14.3 30.1 13.9 30 13.7 30.1zM15.2 31.5c-0.5 0.3-0.1 1 0.3 1 0.4 0 0.6-0.3 0.7-0.6C16.3 31.6 15.4 31.3 15.2 31.5zM17.3 32.4c-0.8 0.2-0.5 0.9-0.1 1s0.7-0.1 0.8-0.5C18.1 32.5 17.8 32.3 17.3 32.4zM30.8 13.1c0.2 0 0.7 0.1 0.9 0.1s0.2 1.4 0.3 1.8c0.1 0.4 0.7 0.4 1 0.2 0.2-0.2-0.1-2.5-0.3-2.7s-1.8 0.1-2 0.1C30.6 12.6 30.6 13 30.8 13.1zM35.3 39.7c0.2 0 0.6-0.2 0.6-0.4 0-0.3-1.3-3.3-1.4-3.4 -0.1-0.1-0.9 0.2-0.9 0.3C33.7 36.5 35.1 39.7 35.3 39.7z"/></svg>
 