<svg xmlns="http://www.w3.org/2000/svg" viewBox="0 0 46.4 46.4"><path d="M3.5 14.3c1.4 0.9 4.1 0.9 5.9 0.8 1.7-0.1 4.5-2.3 4.6-6.1 0.2-3.8-2.5-5.8-2.5-5.8 -3.2-2.8-7.7-1.2-8.6-0.6 -0.9 0.6-3.5 2.9-2.8 6C0.8 11.8 1.8 13.2 3.5 14.3zM2.2 4.5c0.7-1 2.2-2 5-1.6 2.9 0.4 3.7 1.7 4.4 2.9 0.8 1.2 0.7 2.2 0.7 2.2s-1.8-3.2-2.1-3.1c-0.3 0.1-0.7 0.6-0.5 0.9s2.3 3.1 2.2 3.3 -0.2 0.8-0.3 0.6 -1.8-3.1-2-3.1c-0.2 0.1-0.5 0.4-0.4 0.8 0.2 0.4 2 2.9 1.9 3s-0.4 0.6-0.5 0.4 -1.5-2.9-1.8-2.8 -0.5 0.4-0.3 0.8 1.7 2.4 1.6 2.5 -0.4 0.4-0.5 0.3 -1.6-2.4-1.8-2.4c-0.2 0-0.7 0.5-0.4 0.8 0.3 0.3 1.5 1.9 1.4 2 -0.2 0.1-1.1 0.3-1.3 0.2s-0.9-1.6-1.1-1.6c-0.2 0-0.7 0.4-0.6 0.7s1 1.1 0.7 1.2 -2.9-0.3-4-1.1C1.4 10.6 0.2 7.3 2.2 4.5zM4 10.3c0.2-0.2 0.2-0.3 0.2-0.5s-0.7-0.7-0.8-1.1 0-1.6 0.6-2.2 0.7-1 0.3-1.2 -1.5 0.4-1.7 1.8c-0.2 1.3 0 2.5 0.4 3C3.2 10.5 3.7 10.5 4 10.3zM6.4 19.6c-0.5-0.2-3.2-0.2-3.6-0.1s-0.4 3.8-0.4 4.2c0.1 0.4 0 1 0.3 1.1 0 0 0.6 0.1 0.7 0 0.2-0.1 0.3-3.8 0.3-4 0.1-0.3 2.8-0.1 2.9-0.2C6.9 20.5 7 19.8 6.4 19.6zM13 17.4c-1-0.4-6.2-0.5-8-0.5s-3.9-0.1-4.1 0.3c-0.2 0.3-0.1 7.6-0.2 12.4s-0.4 12-0.3 12.3c0.2 0.3 3.1 2.3 3.3 2.5 0.2 0.2 0.8 0.3 2.3 0.2s6.6 0.2 7.2 0.1 1.3-0.4 1.5-0.8 0.3-2.6 0.4-7.6 0.8-11.6 0.7-14.2S14 17.7 13 17.4zM13 23.6c-0.2-0.1-1.6-2.4-1.8-2.1 -0.3 0.3-0.3 0.5 0 1s1.7 2.6 1.8 2.9c0 0.3 0.1 1.5 0 1.5s-1.8-2.7-2-2.6 -0.4 0.6-0.4 0.7 2.2 3 2.3 3.5 0 1.2-0.1 1.1 -1.7-3.3-2-3.2c-0.3 0.2-0.5 0.7-0.3 1.1s2.2 3.1 2.2 3.3 0 1.4-0.1 1.3 -1.8-3.2-2-3.2c-0.3 0-0.5 0.7-0.4 1 0.1 0.4 2.5 3.5 2.4 3.8s0 1.7-0.2 1.6c-0.1-0.1-2.1-3.7-2.3-3.7 -0.2-0.1-0.5 0.6-0.4 0.9s2.6 4.4 2.6 4.7c0 0.4 0 2.3-0.2 2.2 -0.2-0.1-2.4-4.5-2.8-4.6s-0.4 0.8-0.4 1c0.1 0.2 3 4.7 3 4.9s0 0.5-0.3 0.6 -0.4 0.1-0.4 0 -2.2-3.9-2.6-4.1 -0.6 0.4-0.6 0.5 2.7 3.6 2.4 3.8c-0.3 0.2-1 0.3-1.1 0.1 -0.2-0.2-2.4-4-2.6-4 -0.3 0-0.8 0.7-0.6 0.8 0.2 0.2 2.3 3.2 2.1 3.2 -0.2 0-0.9 0.2-1.1 0.1 -0.2-0.2-1.9-3-2.1-3 -0.3 0-0.5 0.4-0.5 0.4s1.7 2.4 1.5 2.4 -0.9 0.1-1 0 -1.2-2.2-1.4-2.2c-0.2-0.1-0.6 0.4-0.6 0.5s1.3 1.7 1 1.7 -1.8-0.1-1.9-0.1c-0.1-0.1-0.6-0.6-0.7-1.1s0.2-22.2 0.4-22.6c0.1-0.1 4.5 0.1 6.8 0.2s3.8-0.1 4.1 0.3c0.3 0.4 0.4 2.4 0.3 2.3s-1-1.9-1.3-1.8 -0.5 0.7-0.4 1c0.2 0.3 1.6 2.4 1.7 2.7C13.2 23 13.2 23.6 13 23.6zM46.3 25.9c-0.2-3.2-2-5.6-4.4-7.1 -2.4-1.6-6.6-2-9.4-1.4 -2.8 0.6-5.8 3.2-5.9 3.1 -0.1 0 0-2.2-0.1-2.7s-1-0.5-3.4-0.5 -5.6 0-5.7 0.2c-0.1 0.6 0.1 11.6 0.1 15.6s-0.2 8.3 0 8.9c0.2 0.5 1.8 2.4 2.4 2.4s6.5-0.1 7.4-0.2 1-1.1 1-2.3c0-1.3 0-11 0.4-14 0.4-3.1 2.9-4.2 4.8-3.7 2 0.5 2.3 2.7 2.7 5.4s-0.4 10.3-0.4 11.1 0.1 3.3 0.6 3.4c0.5 0.2 7.3 0 8.3 0 1-0.1 1.4-0.2 1.5-0.9S46.5 29.1 46.3 25.9zM42.6 24.1c0.1 0.1 2.4 3.8 2.4 4.1s0 1-0.1 1c-0.1-0.1-1.6-2.9-1.9-2.9 -0.3 0-0.7 0.6-0.5 0.8 0.1 0.2 2.3 3.5 2.3 3.7 0 0.3 0.1 1.8 0 1.6 -0.1-0.1-2-3.5-2.2-3.5s-0.4 0.6-0.4 0.8c0 0.3 2.4 4 2.4 4.1s0 2.4-0.2 2.4 -0.9-1.2-1.5-2.5 -0.7-1.7-1-1.6 -0.2 1.1-0.1 1.3c0.1 0.3 2.4 4.1 2.4 4.3 0 0.2 0.1 1.9-0.1 1.8s-2.3-4.6-2.5-4.6c-0.3 0-0.6 0.7-0.5 0.8 0.1 0.1 2.6 4.3 2.6 4.9 0.1 0.6 0 0.9-0.2 0.9s-0.3-0.1-0.4-0.3c-0.1-0.2-2.4-4-2.5-4.1 -0.1 0-0.5 0.7-0.3 0.9 0.1 0.2 2.2 3.3 2.1 3.3 -0.1 0-1 0-1.1 0 -0.1-0.1-1.8-2.7-2-2.7 -0.1 0-0.6 0.6-0.5 0.7s1.5 1.9 1.3 2 -0.8 0.1-0.9 0 -1.1-1.9-1.4-1.9c-0.3 0-0.5 0.5-0.4 0.6s1 1.4 0.8 1.5c-0.3 0.1-1.1 0.1-1.1 0s0.4-3.3 0.5-6.1c0-2.8-0.2-5.7-0.5-7.6s-0.5-3.7-1.8-4.4c-1.3-0.7-3.6-1.1-5.4 0 -1.8 1.1-2.4 2.3-2.7 2.7 -0.3 0.4-0.3 0.8-0.3 0.8s-0.9-1.6-1.3-1.2c-0.4 0.5-0.4 0.7-0.3 0.9 0.1 0.1 1.1 1 1.2 1.3 0 0.4 0.1 2.1 0 2.1s-1.3-2.3-1.5-2.2c-0.3 0.1-0.3 1-0.3 1.1s1.5 2.2 1.5 2.5 0 1.5-0.1 1.5c-0.1-0.1-1.7-2.9-1.8-2.8 -0.2 0.1-0.5 0.6-0.4 0.8 0 0.2 2.4 3.7 2.4 3.8 0 0.2 0 2.1-0.2 2.1s-2-3.8-2.2-3.8c-0.1 0-0.6 0.7-0.5 0.9 0.1 0.2 2.6 4.1 2.7 4.4 0.1 0.3 0.1 2.3 0 2.3s-2.7-5.3-2.8-5.3c-0.2 0-0.6 0.7-0.6 0.8 0 0.1 2.8 4.8 2.8 5.1 0 0.2-0.1 0.3-0.1 0.3s-0.2 0.1-0.3 0 -2.2-3.6-2.4-3.7c-0.2-0.1-0.7 0.5-0.6 0.7s2.3 2.9 2.2 3.1c-0.1 0.1-1.1 0.1-1.2 0 -0.1-0.1-1.7-2.9-1.9-2.9 -0.2 0-0.6 0.7-0.6 0.8 0 0.1 1.5 2.1 1.5 2.2s-0.9 0.1-0.9 0c-0.1-0.1-1.4-2.2-1.7-2.2 -0.3 0-0.5 0.7-0.4 0.8 0.1 0.1 1.2 1.6 1 1.6s-1.7 0.1-1.7-0.3 0.3-7.6 0.3-10 -0.3-12.6-0.1-13.2c0-0.1 4.7 0 5.5 0s1.3 0 1.4 0.1c0.1 0.1 0 3.9 0.2 4.1 0.3 0.1 1-0.6 1.2-0.8 0.2-0.2 1.3-1.1 3.7-2.3 2.4-1.1 5.7-1.4 7.3-1 1.7 0.4 3.5 0.9 4.7 2.5s2 3 2.3 3.8c0.2 0.9 0.2 1.6 0.1 1.6 -0.1 0-1.5-3.5-1.9-3.4C42.6 23.1 42.5 24 42.6 24.1zM23.6 19.5c-0.3-0.2-3.2-0.1-3.4-0.1 -0.2 0-0.3 0.4-0.3 0.5 0 0-0.1 0.4 0.1 0.6 0.1 0.2 2.5 0.1 2.7 0.1 0.3 0 0.3 1.2 0.3 1.5s0.9 0.1 1 0.1 0.1-0.4 0.1-1C24.2 20.6 23.9 19.7 23.6 19.5zM33.3 21c-0.3 0.2-0.3 0.7 0.1 0.9 0.4 0.2 2.4 0.6 3.4 1.4s1 3.1 1.1 3.4c0 0.2 0.7 0.4 1 0.1s0.2-2-0.9-3.9C36.8 21 33.5 20.9 33.3 21z"/></svg>